<?xml version="1.0" encoding="UTF-8"?>
<svg width="13px" height="14px" viewBox="0 0 13 14" version="1.1" xmlns="http://www.w3.org/2000/svg" xmlns:xlink="http://www.w3.org/1999/xlink">
    <!-- Generator: Sketch 51.2 (57519) - http://www.bohemiancoding.com/sketch -->
    <path d="M10.8333333,0 C12.0611111,0 13,0.905357143 13,2.08928571 L13,11.8392857 C13,13.0232143 12.0611111,13.9285714 10.8333333,13.9285714 L2.16666667,13.9285714 C0.938888889,13.9285714 0,13.0232143 0,11.8392857 L0,2.08928571 C0,0.905357143 0.938888889,0 2.16666667,0 L10.8333333,0 Z M2.86100386,1.35888502 L2.13320463,1.35888502 C1.6965251,1.35888502 1.40540541,1.63915505 1.40540541,2.0595601 L1.40540541,11.8690113 C1.40540541,12.2894164 1.6965251,12.5696864 2.13320463,12.5696864 L10.8667954,12.5696864 C11.3034749,12.5696864 11.5945946,12.2894164 11.5945946,11.8690113 L11.5945946,2.0595601 C11.5945946,1.63915505 11.3034749,1.35888502 10.8667954,1.35888502 L10.1389961,1.35888502 L10.1389961,2.76023519 C10.1389961,3.53097779 9.48397683,4.16158537 8.68339768,4.16158537 L4.31660232,4.16158537 C3.51602317,4.16158537 2.86100386,3.53097779 2.86100386,2.76023519 L2.86100386,1.35888502 Z M8.43243243,8.83275261 C8.85405405,8.83275261 9.13513514,9.10452962 9.13513514,9.51219512 C9.13513514,9.91986063 8.85405405,10.1916376 8.43243243,10.1916376 L4.21621622,10.1916376 C3.79459459,10.1916376 3.51351351,9.91986063 3.51351351,9.51219512 C3.51351351,9.10452962 3.79459459,8.83275261 4.21621622,8.83275261 L8.43243243,8.83275261 Z M8.43243243,6.45470383 C8.85405405,6.45470383 9.13513514,6.72648084 9.13513514,7.13414634 C9.13513514,7.54181185 8.85405405,7.81358885 8.43243243,7.81358885 L4.21621622,7.81358885 C3.79459459,7.81358885 3.51351351,7.54181185 3.51351351,7.13414634 C3.51351351,6.72648084 3.79459459,6.45470383 4.21621622,6.45470383 L8.43243243,6.45470383 Z M8.43243243,1.35888502 L4.21621622,1.35888502 L4.21621622,2.71777003 L8.43243243,2.71777003 L8.43243243,1.35888502 Z" id="Shape"></path>
</svg>
