<?xml version="1.0" encoding="UTF-8"?>
<svg width="17px" height="17px" viewBox="0 0 17 17" version="1.1" xmlns="http://www.w3.org/2000/svg" xmlns:xlink="http://www.w3.org/1999/xlink">
    <!-- Generator: Sketch 51.2 (57519) - http://www.bohemiancoding.com/sketch -->
    <title>Shape</title>
    <desc>Created with Sketch.</desc>
    <defs></defs>
    <g id="Page-1" stroke="none" stroke-width="1" fill="none" fill-rule="evenodd">
        <g id="管理人员看板-付费" transform="translate(-1457.000000, -406.000000)" fill="#4773FF" fill-rule="nonzero">
            <g id="Group-34" transform="translate(264.000000, 340.000000)">
                <g id="Group-16" transform="translate(1193.000000, 61.000000)">
                    <path d="M8.48615,14.4290538 C7.96539861,14.4290538 7.5432462,14.0069014 7.5432462,13.48615 L7.5432462,9.71453479 C7.5432462,9.1937834 7.96539861,8.77163099 8.48615,8.77163099 C9.00690139,8.77163099 9.4290538,9.1937834 9.4290538,9.71453479 L9.4290538,13.48615 C9.4290538,14.0069014 9.00690139,14.4290538 8.48615,14.4290538 Z M8.48615,18.200669 C8.23552336,18.202118 7.994632,18.1037258 7.8166883,17.9272269 C7.7340743,17.8331464 7.66431842,17.7285126 7.60924946,17.6160687 C7.56416381,17.5020609 7.54174428,17.3803549 7.5432462,17.2577652 C7.53970373,17.1340462 7.56555533,17.0112511 7.6186785,16.8994618 C7.66642891,16.7851961 7.73340073,16.6799546 7.8166883,16.5883035 C7.99373414,16.4097999 8.23473645,16.3093941 8.48615,16.3093941 C8.73756355,16.3093941 8.97856586,16.4097999 9.1556117,16.5883035 C9.23858723,16.6797652 9.30647631,16.7853704 9.3536215,16.8994618 C9.45449032,17.1276821 9.45449032,17.3878483 9.3536215,17.6160687 C9.2678891,17.8529546 9.08133941,18.0395043 8.84445344,18.1252367 C8.73109537,18.173552 8.60936608,18.1991792 8.48615,18.200669 Z M11.6731649,21.9722842 L5.29913515,21.9722842 C5.0485085,21.9737332 4.80761715,21.875341 4.62967345,21.6988421 L0.273457883,17.3426266 C0.0969590072,17.1646828 -0.00143323501,16.9237915 1.57807016e-05,16.6731649 L1.57807016e-05,10.2991351 C-0.00143323501,10.0485085 0.0969590072,9.80761715 0.273457883,9.62967345 L4.62967345,5.27345788 C4.80761715,5.09695901 5.0485085,4.99856676 5.29913515,5.00001578 L11.6731649,5.00001578 C11.9237915,4.99856676 12.1646828,5.09695901 12.3426266,5.27345788 L16.6988421,9.62967345 C16.875341,9.80761715 16.9737332,10.0485085 16.9722842,10.2991351 L16.9722842,16.6731649 C16.9737332,16.9237915 16.875341,17.1646828 16.6988421,17.3426266 L12.3426266,21.6988421 C12.1646828,21.875341 11.9237915,21.9737332 11.6731649,21.9722842 Z M5.69515475,20.0864766 L11.3148614,20.0864766 L15.0864766,16.3148614 L15.0864766,10.6574386 L11.3148614,6.88582338 L5.65743859,6.88582338 L1.88582338,10.6574386 L1.88582338,16.3148614 L5.69515475,20.0864766 Z" id="Shape"></path>
                </g>
            </g>
        </g>
    </g>
</svg>