<?xml version="1.0" encoding="UTF-8"?>
<svg width="16px" height="18px" viewBox="0 0 16 18" version="1.1" xmlns="http://www.w3.org/2000/svg" xmlns:xlink="http://www.w3.org/1999/xlink">
    <!-- Generator: Sketch 51.2 (57519) - http://www.bohemiancoding.com/sketch -->
    <title>Shape</title>
    <desc>Created with Sketch.</desc>
    <defs></defs>
    <g id="Page-1" stroke="none" stroke-width="1" fill="none" fill-rule="evenodd">
        <g id="管理人员看板-付费" transform="translate(-515.000000, -404.000000)" fill="#4773FF" fill-rule="nonzero">
            <g id="Group-34" transform="translate(264.000000, 340.000000)">
                <g id="Group-9" transform="translate(251.000000, 61.000000)">
                    <path d="M15.1111111,20.7777778 L0.888888889,20.7777778 C0.397969111,20.7777778 0,20.3798087 0,19.8888889 L0,4.77777778 C0,4.286858 0.397969111,3.88888889 0.888888889,3.88888889 L2.66666667,3.88888889 C3.15758644,3.88888889 3.55555556,4.286858 3.55555556,4.77777778 C3.55555556,5.26869756 3.15758644,5.66666667 2.66666667,5.66666667 L1.77777778,5.66666667 L1.77777778,19 L14.2222222,19 L14.2222222,5.66666667 L13.3333333,5.66666667 C12.8424136,5.66666667 12.4444444,5.26869756 12.4444444,4.77777778 C12.4444444,4.286858 12.8424136,3.88888889 13.3333333,3.88888889 L15.1111111,3.88888889 C15.6020309,3.88888889 16,4.286858 16,4.77777778 L16,19.8888889 C16,20.3798087 15.6020309,20.7777778 15.1111111,20.7777778 Z M7.11111111,15.4444444 C6.87484179,15.4458105 6.64775007,15.3530547 6.48,15.1866667 L4.70222222,13.4088889 C4.4001984,13.0562131 4.42050465,12.5304941 4.74883269,12.202166 C5.07716074,11.873838 5.60287975,11.8535317 5.95555556,12.1555556 L7.10222222,13.3022222 L10.0266667,10.3777778 C10.3793425,10.075754 10.9050615,10.0960602 11.2333895,10.4243882 C11.5617176,10.7527163 11.5820238,11.2784353 11.28,11.6311111 L7.72444444,15.1866667 C7.56107669,15.3487473 7.34121616,15.4411525 7.11111111,15.4444444 Z M6.22222222,6.55555556 C5.73130244,6.55555556 5.33333333,6.15758644 5.33333333,5.66666667 L5.33333333,3.88888889 C5.33333333,3.39796911 5.73130244,3 6.22222222,3 C6.713142,3 7.11111111,3.39796911 7.11111111,3.88888889 L7.11111111,5.66666667 C7.11111111,6.15758644 6.713142,6.55555556 6.22222222,6.55555556 Z M9.77777778,6.55555556 C9.286858,6.55555556 8.88888889,6.15758644 8.88888889,5.66666667 L8.88888889,3.88888889 C8.88888889,3.39796911 9.286858,3 9.77777778,3 C10.2686976,3 10.6666667,3.39796911 10.6666667,3.88888889 L10.6666667,5.66666667 C10.6666667,6.15758644 10.2686976,6.55555556 9.77777778,6.55555556 Z" id="Shape"></path>
                </g>
            </g>
        </g>
    </g>
</svg>