<?xml version="1.0" encoding="UTF-8"?>
<svg width="16px" height="16px" viewBox="0 0 16 16" version="1.1" xmlns="http://www.w3.org/2000/svg" xmlns:xlink="http://www.w3.org/1999/xlink">
    <!-- Generator: Sketch 51.2 (57519) - http://www.bohemiancoding.com/sketch -->
    <title>Group 14 Copy</title>
    <desc>Created with Sketch.</desc>
    <defs></defs>
    <g id="Page-1">
        <g id="管理人员看板-免费" transform="translate(-60.000000, -346.000000)">
            <g id="Group-21">
                <g id="导航">
                    <g id="Group-33" transform="translate(61.000000, 344.000000)">
                        <g id="Group-14-Copy" transform="translate(0.000000, 2.000000)">
                            <path d="M10.223198,6.35226889 C10.4843936,6.08401563 10.9271881,6.06583895 11.2122072,6.31167013 C11.4972263,6.55750131 11.516539,6.97424909 11.2553434,7.24250235 L9.37078338,9.17798404 C8.9161095,9.64494341 8.14531905,9.67658431 7.64917471,9.24865595 C7.62017016,9.22308775 7.62017016,9.22308775 7.59237381,9.19635719 L6.16919895,7.79764913 L3.78743329,10.6128668 C3.67148415,10.7499173 3.69553399,10.9494848 3.84115009,11.0586134 C3.90081379,11.103327 3.97482675,11.127673 4.05109458,11.127673 L8.15930406,11.127673 C8.62206079,11.127673 9.04488128,11.374381 9.25068524,11.764474 L10.7050739,14.521208 C10.877008,14.8471021 10.7356869,15.2424728 10.3894245,15.4042931 C10.043162,15.5661135 9.62308068,15.4331055 9.45114656,15.1072114 L8.04679473,12.44532 L4.05109458,12.44532 C3.65802192,12.44532 3.27657049,12.3198447 2.96907299,12.0893979 C2.21858996,11.5269658 2.09464083,10.4984253 2.69222486,9.79208838 L5.20337457,6.82394031 C5.2374358,6.78368036 5.27433775,6.74562392 5.3138302,6.71002906 C5.79987434,6.27195349 6.57121704,6.28766226 7.03667233,6.74511558 L8.46952094,8.15333107 L10.223198,6.35226889 Z M0.737037,14.786928 C0.350437675,14.786928 0.037037,14.4919627 0.037037,14.1281045 C0.037037,13.7642463 0.350437675,13.4692809 0.737037,13.4692809 L6.94341702,13.4692809 C7.33001634,13.4692809 7.64341702,13.7642463 7.64341702,14.1281045 C7.64341702,14.4919627 7.33001634,14.786928 6.94341702,14.786928 L0.737037,14.786928 Z" id="Combined-Shape"></path>
                            <path d="M6.50360388,0.658823529 C5.58401159,0.65882351 4.73427326,1.14961573 4.27447711,1.94632351 C3.81468096,2.74303129 3.81468096,3.72461576 4.27447711,4.52132355 C4.73427326,5.31803133 5.58401159,5.80882355 6.50360388,5.80882353 C7.92517036,5.80882351 9.07757767,4.65595675 9.07757767,3.23382353 C9.07757767,1.81169031 7.92517036,0.658823551 6.50360388,0.658823529 Z M6.50360388,2.11472252 C6.90329463,2.1146718 7.27264581,2.32796015 7.47250583,2.67423205 C7.67236584,3.02050394 7.67236584,3.44714314 7.47250583,3.79341503 C7.27264581,4.13968692 6.90329463,4.35297528 6.50360388,4.35292455 C5.88584318,4.35284616 5.38509074,3.85183053 5.38509074,3.23382354 C5.38509074,2.61581655 5.88584318,2.11480092 6.50360388,2.11472252 Z" id="Shape-Copy-2"></path>
                            <path d="M12.1740741,4.32941176 C11.4330788,4.32941175 10.7483709,4.72490451 10.3778732,5.36691175 C10.0073756,6.00891899 10.0073756,6.79990454 10.3778732,7.44191178 C10.7483709,8.08391902 11.4330788,8.47941178 12.1740741,8.47941176 C13.3195536,8.47941175 14.2481481,7.55040261 14.2481481,6.40441176 C14.2481481,5.25842092 13.3195536,4.32941178 12.1740741,4.32941176 Z M12.1739688,5.57441177 C12.470392,5.57437415 12.7443144,5.73256303 12.8925369,5.98938137 C13.0407593,6.24619971 13.0407593,6.56262382 12.8925369,6.81944216 C12.7443144,7.0762605 12.470392,7.23444938 12.1739688,7.23441176 C11.7158181,7.23435361 11.3444444,6.86276699 11.3444444,6.40441176 C11.3444444,5.94605654 11.7158181,5.57446992 12.1739688,5.57441177 Z" id="Shape-Copy-3"></path>
                        </g>
                    </g>
                </g>
            </g>
        </g>
    </g>
</svg>
