<?xml version="1.0" encoding="UTF-8"?>
<svg width="14px" height="13px" viewBox="0 0 14 13" version="1.1" xmlns="http://www.w3.org/2000/svg" xmlns:xlink="http://www.w3.org/1999/xlink">
    <!-- Generator: Sketch 51.2 (57519) - http://www.bohemiancoding.com/sketch -->
    <title>Combined Shape</title>
    <desc>Created with Sketch.</desc>
    <defs></defs>
    <g id="Page-1">
        <g id="管理人员看板-免费" transform="translate(-61.000000, -288.000000)">
            <g id="Group-21">
                <g id="导航">
                    <g id="Group-32" transform="translate(61.000000, 285.000000)">
                        <path d="M1.35483871,14.5720254 L1.35483871,5.03225806 C1.35483871,3.90987293 2.26471164,3 3.38709677,3 C3.5795985,3 3.77112383,3.02735084 3.95593095,3.08123256 L8.02044708,4.26626868 C8.88764289,4.51910526 9.48387097,5.31399196 9.48387097,6.21729419 L9.48387097,14.5720254 L13.3225806,14.5720254 C13.696709,14.5720254 14,14.8753164 14,15.2494448 C14,15.6235732 13.696709,15.9268641 13.3225806,15.9268641 L0.677419355,15.9268641 C0.303290976,15.9268641 0,15.6235732 0,15.2494448 C0,14.8753164 0.303290976,14.5720254 0.677419355,14.5720254 L1.35483871,14.5720254 Z M8.12903226,14.5720254 L8.12903226,6.21729419 C8.12903226,5.91619345 7.93028957,5.65123121 7.6412243,5.56695235 L3.57670817,4.38191623 C3.51510579,4.36395566 3.45126401,4.35483871 3.38709677,4.35483871 C3.0129684,4.35483871 2.70967742,4.65812969 2.70967742,5.03225806 L2.70967742,14.5720254 L8.12903226,14.5720254 Z M4.74193548,7.68492866 C4.74193548,7.31080028 5.04522646,7.0075093 5.41935484,7.0075093 C5.79348322,7.0075093 6.09677419,7.31080028 6.09677419,7.68492866 L6.09677419,12.6526706 C6.09677419,13.026799 5.79348322,13.3300899 5.41935484,13.3300899 C5.04522646,13.3300899 4.74193548,13.026799 4.74193548,12.6526706 L4.74193548,7.68492866 Z M13.0967742,10.0558964 C13.4709026,10.0558964 13.7741935,10.3591874 13.7741935,10.7333158 C13.7741935,11.1074441 13.4709026,11.4107351 13.0967742,11.4107351 L11.1774194,11.4107351 C10.803291,11.4107351 10.5,11.1074441 10.5,10.7333158 C10.5,10.3591874 10.803291,10.0558964 11.1774194,10.0558964 L13.0967742,10.0558964 Z M13.0967742,12.3139609 C13.4709026,12.3139609 13.7741935,12.6172519 13.7741935,12.9913803 C13.7741935,13.3655086 13.4709026,13.6687996 13.0967742,13.6687996 L11.1774194,13.6687996 C10.803291,13.6687996 10.5,13.3655086 10.5,12.9913803 C10.5,12.6172519 10.803291,12.3139609 11.1774194,12.3139609 L13.0967742,12.3139609 Z" id="Combined-Shape"></path>
                    </g>
                </g>
            </g>
        </g>
    </g>
</svg>
