<?xml version="1.0" encoding="UTF-8"?>
<svg width="18px" height="17px" viewBox="0 0 18 17" version="1.1" xmlns="http://www.w3.org/2000/svg" xmlns:xlink="http://www.w3.org/1999/xlink">
    <!-- Generator: Sketch 51.2 (57519) - http://www.bohemiancoding.com/sketch -->
    <title>Shape</title>
    <desc>Created with Sketch.</desc>
    <defs></defs>
    <g id="Page-1" stroke="none" stroke-width="1" fill="none" fill-rule="evenodd">
        <g id="管理人员看板-付费" transform="translate(-749.000000, -406.000000)" fill="#4773FF" fill-rule="nonzero">
            <g id="Group-34" transform="translate(264.000000, 340.000000)">
                <g id="Group-11" transform="translate(485.000000, 61.000000)">
                    <path d="M12.7041801,5 C13.2598071,5 13.8154341,5.2778135 14.1858521,5.74083601 L17.6122186,10.2784566 C18.1678457,11.0192926 18.0752412,11.9453376 17.5196141,12.5935691 L10.3890675,20.5575563 C9.74083601,21.2983923 8.53697749,21.3909968 7.79614148,20.7427653 C7.70353698,20.7427653 7.70353698,20.6501608 7.70353698,20.6501608 L0.480385852,12.6861736 C-0.0752411576,12.0379421 -0.167845659,11.0192926 0.38778135,10.2784566 L3.81414791,5.74083601 C4.18456592,5.2778135 4.74019293,5 5.29581994,5 L12.7041801,5 Z M12.7041801,6.85209003 L5.29581994,6.85209003 L1.86945338,11.3897106 L9,19.3536977 L16.1305466,11.3897106 L12.7041801,6.85209003 Z M11.778135,9.63022508 C12.3337621,9.63022508 12.7041801,10.0006431 12.7041801,10.5562701 C12.7041801,11.1118971 12.3337621,11.4823151 11.778135,11.4823151 L6.22186495,11.4823151 C5.66623794,11.4823151 5.29581994,11.1118971 5.29581994,10.5562701 C5.29581994,10.0006431 5.66623794,9.63022508 6.22186495,9.63022508 L11.778135,9.63022508 Z" id="Shape"></path>
                </g>
            </g>
        </g>
    </g>
</svg>