<?xml version="1.0" encoding="UTF-8"?>
<svg width="16px" height="16px" viewBox="0 0 16 16" version="1.1" xmlns="http://www.w3.org/2000/svg" xmlns:xlink="http://www.w3.org/1999/xlink">
    <!-- Generator: Sketch 51.2 (57519) - http://www.bohemiancoding.com/sketch -->
    <title>Shape</title>
    <desc>Created with Sketch.</desc>
    <defs></defs>
    <g id="Page-1" stroke="none" stroke-width="1" fill="none" fill-rule="evenodd">
        <g id="管理人员看板-付费" transform="translate(-1695.000000, -407.000000)" fill="#4773FF" fill-rule="nonzero">
            <g id="Group-34" transform="translate(264.000000, 340.000000)">
                <g id="Group-18" transform="translate(1431.000000, 61.000000)">
                    <path d="M15.1111111,22 L0.888888889,22 C0.397969111,22 0,21.6020309 0,21.1111111 L0,6.88888889 C0,6.39796911 0.397969111,6 0.888888889,6 L11.5555556,6 C12.0464753,6 12.4444444,6.39796911 12.4444444,6.88888889 L12.4444444,17.5555556 C12.4444444,18.0464753 12.0464753,18.4444444 11.5555556,18.4444444 C11.0646358,18.4444444 10.6666667,18.0464753 10.6666667,17.5555556 L10.6666667,7.77777778 L1.77777778,7.77777778 L1.77777778,20.2222222 L14.2222222,20.2222222 L14.2222222,8.66666667 C14.2222222,8.17574689 14.6201913,7.77777778 15.1111111,7.77777778 C15.6020309,7.77777778 16,8.17574689 16,8.66666667 L16,21.1111111 C16,21.6020309 15.6020309,22 15.1111111,22 Z M8,11.3333333 L4.44444444,11.3333333 C3.95352467,11.3333333 3.55555556,10.9353642 3.55555556,10.4444444 C3.55555556,9.95352467 3.95352467,9.55555556 4.44444444,9.55555556 L8,9.55555556 C8.49091978,9.55555556 8.88888889,9.95352467 8.88888889,10.4444444 C8.88888889,10.9353642 8.49091978,11.3333333 8,11.3333333 Z M8,14.8888889 L4.44444444,14.8888889 C3.95352467,14.8888889 3.55555556,14.4909198 3.55555556,14 C3.55555556,13.5090802 3.95352467,13.1111111 4.44444444,13.1111111 L8,13.1111111 C8.49091978,13.1111111 8.88888889,13.5090802 8.88888889,14 C8.88888889,14.4909198 8.49091978,14.8888889 8,14.8888889 Z M6.22222222,18.4444444 L4.44444444,18.4444444 C3.95352467,18.4444444 3.55555556,18.0464753 3.55555556,17.5555556 C3.55555556,17.0646358 3.95352467,16.6666667 4.44444444,16.6666667 L6.22222222,16.6666667 C6.713142,16.6666667 7.11111111,17.0646358 7.11111111,17.5555556 C7.11111111,18.0464753 6.713142,18.4444444 6.22222222,18.4444444 Z" id="Shape"></path>
                </g>
            </g>
        </g>
    </g>
</svg>