<?xml version="1.0" encoding="UTF-8"?>
<svg width="14px" height="14px" viewBox="0 0 14 14" version="1.1" xmlns="http://www.w3.org/2000/svg" xmlns:xlink="http://www.w3.org/1999/xlink">
    <!-- Generator: Sketch 51.2 (57519) - http://www.bohemiancoding.com/sketch -->
    <path d="M1.55555556,0 L12.4444444,0 C13.3035541,0 14,0.696445945 14,1.55555556 L14,9.33333333 C14,10.1924429 13.3035541,10.8888889 12.4444444,10.8888889 L1.55555556,10.8888889 C0.696445945,10.8888889 0,10.1924429 0,9.33333333 L0,1.55555556 C0,0.696445945 0.696445945,0 1.55555556,0 Z M1.55555556,1.55555556 L1.55555556,9.33333333 L12.4444444,9.33333333 L12.4444444,1.55555556 L1.55555556,1.55555556 Z M0.777777778,12.4444444 L13.2222222,12.4444444 C13.651777,12.4444444 14,12.7926674 14,13.2222222 C14,13.651777 13.651777,14 13.2222222,14 L0.777777778,14 C0.348222972,14 0,13.651777 0,13.2222222 C0,12.7926674 0.348222972,12.4444444 0.777777778,12.4444444 Z M7,5.44444444 C7.42955481,5.44444444 7.77777778,5.79266742 7.77777778,6.22222222 L7.77777778,7 C7.77777778,7.42955481 7.42955481,7.77777778 7,7.77777778 C6.57044519,7.77777778 6.22222222,7.42955481 6.22222222,7 L6.22222222,6.22222222 C6.22222222,5.79266742 6.57044519,5.44444444 7,5.44444444 Z M10.1111111,4.66666667 C10.5406659,4.66666667 10.8888889,5.01488964 10.8888889,5.44444444 L10.8888889,7 C10.8888889,7.42955481 10.5406659,7.77777778 10.1111111,7.77777778 C9.68155631,7.77777778 9.33333333,7.42955481 9.33333333,7 L9.33333333,5.44444444 C9.33333333,5.01488964 9.68155631,4.66666667 10.1111111,4.66666667 Z M3.88888889,3.11111111 C4.31844369,3.11111111 4.66666667,3.45933408 4.66666667,3.88888889 L4.66666667,7 C4.66666667,7.42955481 4.31844369,7.77777778 3.88888889,7.77777778 C3.45933408,7.77777778 3.11111111,7.42955481 3.11111111,7 L3.11111111,3.88888889 C3.11111111,3.45933408 3.45933408,3.11111111 3.88888889,3.11111111 Z" id="Shape"></path>
</svg>
