<?xml version="1.0" encoding="UTF-8"?>
<svg width="17px" height="18px" viewBox="0 0 17 18" version="1.1" xmlns="http://www.w3.org/2000/svg" xmlns:xlink="http://www.w3.org/1999/xlink">
    <!-- Generator: Sketch 51.2 (57519) - http://www.bohemiancoding.com/sketch -->
    <title>Group 30</title>
    <desc>Created with Sketch.</desc>
    <defs></defs>
    <g id="Page-1" stroke="none" stroke-width="1" fill="none" fill-rule="evenodd">
        <g id="管理人员看板-付费" transform="translate(-986.000000, -405.000000)" fill="#4773FF" fill-rule="nonzero">
            <g id="Group-34" transform="translate(264.000000, 340.000000)">
                <g id="Group-14" transform="translate(722.000000, 61.000000)">
                    <g id="Group-30" transform="translate(0.000000, 4.000000)">
                        <path d="M4.01448271,2 L2.01448271,2 L2.01448271,16 L14.0144827,16 L14.0144827,2 L12.0144827,2 L12.0144827,4 C12.0144827,4.55228475 11.5667675,5 11.0144827,5 L5.01448271,5 C4.46219796,5 4.01448271,4.55228475 4.01448271,4 L4.01448271,2 Z M2.01448271,0 L14.0144827,0 C15.1190522,0 16.0144827,0.8954305 16.0144827,2 L16.0144827,16 C16.0144827,17.1045695 15.1190522,18 14.0144827,18 L2.01448271,18 C0.909913214,18 0.0144827134,17.1045695 0.0144827134,16 L0.0144827134,2 C0.0144827134,0.8954305 0.909913214,0 2.01448271,0 Z M6.01448271,3 L10.0144827,3 L10.0144827,2 L6.01448271,2 L6.01448271,3 Z" id="Shape"></path>
                        <path d="M10,9 L4,9 C3.44771525,9 3,8.55228475 3,8 C3,7.44771525 3.44771525,7 4,7 L10,7 C10.5522847,7 11,7.44771525 11,8 C11,8.55228475 10.5522847,9 10,9 Z" id="Path"></path>
                        <path d="M6,13 L4,13 C3.44771525,13 3,12.5522847 3,12 C3,11.4477153 3.44771525,11 4,11 L6,11 C6.55228475,11 7,11.4477153 7,12 C7,12.5522847 6.55228475,13 6,13 Z" id="Path"></path>
                    </g>
                </g>
            </g>
        </g>
    </g>
</svg>