<?xml version="1.0" encoding="UTF-8"?>
<svg width="14px" height="14px" viewBox="0 0 14 14" version="1.1" xmlns="http://www.w3.org/2000/svg" xmlns:xlink="http://www.w3.org/1999/xlink">
    <!-- Generator: Sketch 51.2 (57519) - http://www.bohemiancoding.com/sketch -->
    <title>管理员</title>
    <desc>Created with Sketch.</desc>
    <defs></defs>
    <g id="Page-1" stroke="none" stroke-width="1" fill-rule="evenodd">
        <g id="管理人员看板-免费" transform="translate(-61.000000, -525.000000)" fill-rule="nonzero">
            <g id="Group-21">
                <g id="导航">
                    <g id="Group-35-Copy" transform="translate(61.000000, 521.000000)">
                        <g id="管理员" transform="translate(0.000000, 4.000000)">
                            <path d="M10.5,7.07777778 C10.7333333,6.92222222 11.0444444,6.92222222 11.2777778,7.07777778 L13.6111111,8.47777778 C13.8444444,8.63333333 14,8.86666667 14,9.17777778 L14,11.9 C14,12.2111111 13.8444444,12.4444444 13.6111111,12.6 L11.2777778,14 C11.0444444,14.1555556 10.7333333,14.1555556 10.5,14 L8.16666667,12.6 C7.93333333,12.4444444 7.77777778,12.2111111 7.77777778,11.9 L7.77777778,9.17777778 C7.77777778,8.86666667 7.93333333,8.63333333 8.16666667,8.47777778 L10.5,7.07777778 Z M5.44444444,8.55555556 C5.91111111,8.55555556 6.22222222,8.86666667 6.22222222,9.33333333 C6.22222222,9.72222222 5.91111111,10.0333333 5.52222222,10.1111111 L2.33333333,10.1111111 C1.94444444,10.1111111 1.63333333,10.4222222 1.55555556,10.8111111 L1.55555556,12.4444444 L6.22222222,12.4444444 C6.61111111,12.4444444 6.92222222,12.7555556 7,13.1444444 L7,13.2222222 C7,13.6111111 6.68888889,13.9222222 6.3,14 L0.777777778,14 C0.388888889,14 0.0777777778,13.6888889 0,13.3 L0,10.8888889 C0,9.64444444 0.933333333,8.63333333 2.17777778,8.55555556 L5.44444444,8.55555556 Z M10.8888889,8.71111111 L9.33333333,9.64444444 L9.33333333,11.5111111 L10.8888889,12.4444444 L12.4444444,11.5111111 L12.4444444,9.64444444 L10.8888889,8.71111111 Z M7,7.77777778 C5.28888889,7.77777778 3.88888889,6.37777778 3.88888889,4.66666667 L3.88888889,3.11111111 C3.88888889,1.4 5.28888889,0 7,0 C8.71111111,0 10.1111111,1.4 10.1111111,3.11111111 L10.1111111,4.66666667 C10.1111111,6.37777778 8.71111111,7.77777778 7,7.77777778 Z M7,1.55555556 C6.14444444,1.55555556 5.44444444,2.25555556 5.44444444,3.11111111 L5.44444444,4.66666667 C5.44444444,5.52222222 6.14444444,6.22222222 7,6.22222222 C7.85555556,6.22222222 8.55555556,5.52222222 8.55555556,4.66666667 L8.55555556,3.11111111 C8.55555556,2.25555556 7.85555556,1.55555556 7,1.55555556 Z" id="Shape"></path>
                        </g>
                    </g>
                </g>
            </g>
        </g>
    </g>
</svg>
