<?xml version="1.0" standalone="no"?><!DOCTYPE svg PUBLIC "-//W3C//DTD SVG 1.1//EN" "http://www.w3.org/Graphics/SVG/1.1/DTD/svg11.dtd"><svg t="1522129864754" class="icon" style="" viewBox="0 0 1024 1024" version="1.1" xmlns="http://www.w3.org/2000/svg" p-id="1578" xmlns:xlink="http://www.w3.org/1999/xlink" width="32" height="32"><defs><style type="text/css"></style></defs><path d="M512 684.8h-19.2c-96-12.8-160-96-153.6-192 12.8-96 96-166.4 192-153.6 96 12.8 160 96 153.6 192-12.8 89.6-83.2 153.6-172.8 153.6z m0-307.2c-70.4 0-128 51.2-134.4 121.6-6.4 70.4 44.8 140.8 121.6 147.2 70.4 6.4 140.8-44.8 147.2-121.6 6.4-70.4-44.8-140.8-121.6-147.2H512z m153.6 153.6z" fill="" p-id="1579"></path><path d="M384 960c-12.8 0-25.6-6.4-38.4-12.8l-128-70.4c-25.6-12.8-44.8-44.8-38.4-83.2 19.2-108.8-25.6-128-64-140.8-38.4-6.4-64-38.4-64-76.8V441.6c0-32 25.6-64 57.6-76.8 64-19.2 83.2-64 70.4-134.4-6.4-32 6.4-64 38.4-83.2l128-76.8c32-19.2 64-12.8 89.6 6.4 38.4 38.4 102.4 64 153.6 6.4 25.6-25.6 64-32 96-19.2l121.6 70.4c25.6 25.6 44.8 57.6 38.4 89.6-12.8 70.4 12.8 108.8 83.2 134.4 32 12.8 51.2 38.4 51.2 70.4V576c0 32-25.6 64-57.6 76.8-64 19.2-89.6 64-70.4 134.4 6.4 32-6.4 64-38.4 83.2l-128 76.8c-25.6 19.2-64 12.8-89.6-6.4-51.2-44.8-102.4-44.8-153.6 0-19.2 12.8-38.4 19.2-57.6 19.2zM377.6 102.4c-6.4 0-12.8 0-19.2 6.4l-128 76.8c-12.8 6.4-19.2 25.6-19.2 38.4C230.4 320 198.4 384 115.2 403.2c-19.2 6.4-25.6 25.6-25.6 38.4V576c0 19.2 12.8 32 32 38.4 57.6 12.8 121.6 51.2 96 185.6 0 19.2 6.4 32 19.2 38.4l128 70.4c12.8 6.4 32 6.4 44.8-6.4 64-57.6 134.4-57.6 204.8 0 12.8 12.8 32 12.8 44.8 6.4l128-76.8c12.8-6.4 19.2-25.6 19.2-44.8-19.2-96 12.8-153.6 96-179.2 19.2-6.4 32-19.2 32-38.4V422.4c0-19.2-12.8-32-25.6-38.4-83.2-32-121.6-89.6-108.8-179.2 0-19.2-6.4-32-19.2-38.4l-121.6-70.4c-12.8-6.4-38.4-6.4-51.2 6.4-57.6 64-134.4 57.6-204.8-6.4-6.4 12.8-12.8 6.4-25.6 6.4z" fill="" p-id="1580"></path></svg>