<?xml version="1.0" encoding="UTF-8"?>
<svg width="10px" height="10px" viewBox="0 0 10 10" version="1.1" xmlns="http://www.w3.org/2000/svg" xmlns:xlink="http://www.w3.org/1999/xlink">
    <!-- Generator: Sketch 51.2 (57519) - http://www.bohemiancoding.com/sketch -->
    <title>Shape Copy 10</title>
    <desc>Created with Sketch.</desc>
    <defs></defs>
    <g id="Page-1" stroke="none" stroke-width="1" fill="none" fill-rule="evenodd">
        <g id="管理人员看板-付费" transform="translate(-394.000000, -75.000000)" fill="#E2E9FF" fill-rule="nonzero">
            <g id="Group-4" transform="translate(240.000000, 60.000000)">
                <g id="Group-3" transform="translate(54.000000, 10.000000)">
                    <path d="M105,5 C102.24,5 100,7.24 100,10 C100,12.76 102.24,15 105,15 C107.76,15 110,12.76 110,10 C110,7.24 107.76,5 105,5 Z M107.136022,12.1365953 C107.02201,12.2507645 106.821132,12.2507645 106.70712,12.1365953 L104.99694,10.4240571 L103.292189,12.1365953 C103.178177,12.2507645 102.977299,12.2507645 102.863287,12.1365953 C102.749275,12.0224261 102.749275,11.8212708 102.863287,11.7071016 L104.573467,10 L102.868716,8.2928984 C102.754704,8.17872919 102.754704,7.9775739 102.868716,7.86340469 C102.982728,7.74923547 103.183606,7.74923547 103.297618,7.86340469 L105.002369,9.56506966 L106.701691,7.86340469 C106.821132,7.74923547 107.016581,7.74923547 107.130593,7.86340469 C107.244605,7.9775739 107.244605,8.17872919 107.130593,8.2928984 L105.431271,10 L107.141451,11.7125382 C107.250034,11.8212708 107.250034,12.0224261 107.136022,12.1365953 Z" id="Shape-Copy-10"></path>
                </g>
            </g>
        </g>
    </g>
</svg>