<?xml version="1.0" encoding="UTF-8"?>
<svg width="16px" height="16px" viewBox="0 0 16 16" version="1.1" xmlns="http://www.w3.org/2000/svg" xmlns:xlink="http://www.w3.org/1999/xlink">
    <!-- Generator: Sketch 51.2 (57519) - http://www.bohemiancoding.com/sketch -->
    <title>Shape</title>
    <desc>Created with Sketch.</desc>
    <defs></defs>
    <g id="Page-1" stroke="none" stroke-width="1" fill="none" fill-rule="evenodd">
        <g id="管理人员看板-付费" transform="translate(-1221.000000, -406.000000)" fill="#4773FF" fill-rule="nonzero">
            <g id="Group-34" transform="translate(264.000000, 340.000000)">
                <g id="Group-15" transform="translate(957.000000, 61.000000)">
                    <path d="M7.47555556,12.5093333 L10.464,10.0017778 C10.8400445,9.68611636 11.400783,9.73506656 11.7164444,10.1111111 C12.0321059,10.4871557 11.9831557,11.0478941 11.6071111,11.3635556 L8.20266667,14.2204444 C7.94177324,14.439633 7.5785389,14.4903891 7.26755556,14.3511111 C7.01884309,14.3710343 6.77325443,14.2851913 6.59111111,14.1146667 L4.64088889,12.296 C4.40023889,12.0814867 4.29459635,11.7534917 4.3648138,11.4388524 C4.43503124,11.1242131 4.67010098,10.8722541 4.9791203,10.7804095 C5.28813962,10.6885648 5.62266486,10.7712325 5.85333333,10.9964444 L7.47555556,12.5093333 Z M1.73333333,20.7102222 C1.56464675,20.89511 1.32583249,21.0003173 1.07555556,21 L0.888888889,21 C0.397969111,21 0,20.6020309 0,20.1111111 L0,5.88888889 C0,5.39796911 0.397969111,5 0.888888889,5 L15.1111111,5 C15.6020309,5 16,5.39796911 16,5.88888889 L16,20.1111111 C16,20.6020309 15.6020309,21 15.1111111,21 L14.9244444,21 C14.6741675,21.0003173 14.4353533,20.89511 14.2666667,20.7102222 L12.4915556,18.7635556 L10.9022222,20.5057778 C10.7338084,20.690239 10.495556,20.7953302 10.2457778,20.7953302 C9.99599959,20.7953302 9.75774714,20.690239 9.58933333,20.5057778 L8,18.7635556 L6.41066667,20.5057778 C6.24225286,20.690239 6.00400041,20.7953302 5.75422222,20.7953302 C5.50444403,20.7953302 5.26619159,20.690239 5.09777778,20.5057778 L3.50844444,18.7635556 L1.73333333,20.7102222 Z M14.2222222,6.77777778 L1.77777778,6.77777778 L1.77777778,18.0231111 L2.85244444,16.8453333 C3.02085826,16.6608721 3.2591107,16.5557809 3.50888889,16.5557809 C3.75866708,16.5557809 3.99691952,16.6608721 4.16533333,16.8453333 L5.75466667,18.5875556 L7.34311111,16.8453333 C7.5115427,16.6605776 7.74999223,16.5552937 8,16.5552937 C8.25000777,16.5552937 8.4884573,16.6605776 8.65688889,16.8453333 L10.2453333,18.5875556 L11.8346667,16.8453333 C12.0030805,16.6608721 12.2413329,16.5557809 12.4911111,16.5557809 C12.7408893,16.5557809 12.9791417,16.6608721 13.1475556,16.8453333 L14.2222222,18.0231111 L14.2222222,6.77777778 Z" id="Shape"></path>
                </g>
            </g>
        </g>
    </g>
</svg>