<svg width="15px" height="13px" xmlns="http://www.w3.org/2000/svg">
    <path d="M1.66666667,1.55780075 L0.833333333,1.55780075 C0.373096042,1.55780075 0,1.20907518 0,0.778900376 C0,0.348725577 0.373096042,0 0.833333333,0 L14.1666667,0 C14.626904,0 15,0.348725577 15,0.778900376 C15,1.20907518 14.626904,1.55780075 14.1666667,1.55780075 L13.3333333,1.55780075 L13.3333333,8.56790414 C13.3333333,8.99807893 12.9602373,9.34680451 12.5,9.34680451 L8.33333333,9.34680451 L8.33333333,10.9046053 L12.5,10.9046053 C12.9602373,10.9046053 13.3333333,11.2533308 13.3333333,11.6835056 C13.3333333,12.1136804 12.9602373,12.462406 12.5,12.462406 L2.5,12.462406 C2.03976271,12.462406 1.66666667,12.1136804 1.66666667,11.6835056 C1.66666667,11.2533308 2.03976271,10.9046053 2.5,10.9046053 L6.66666667,10.9046053 L6.66666667,9.34680451 L2.5,9.34680451 C2.03976271,9.34680451 1.66666667,8.99807893 1.66666667,8.56790414 L1.66666667,1.55780075 Z M3.33333333,1.55780075 L3.33333333,7.78900376 L11.6666667,7.78900376 L11.6666667,1.55780075 L3.33333333,1.55780075 Z M5.83333333,3.1156015 C6.29357062,3.1156015 6.66666667,3.46432708 6.66666667,3.89450188 L6.66666667,6.23120301 C6.66666667,6.66137781 6.29357062,7.01010338 5.83333333,7.01010338 C5.37309604,7.01010338 5,6.66137781 5,6.23120301 L5,3.89450188 C5,3.46432708 5.37309604,3.1156015 5.83333333,3.1156015 Z M9.16666667,4.67340226 C9.62690396,4.67340226 10,5.02212783 10,5.45230263 L10,6.23120301 C10,6.66137781 9.62690396,7.01010338 9.16666667,7.01010338 C8.70642938,7.01010338 8.33333333,6.66137781 8.33333333,6.23120301 L8.33333333,5.45230263 C8.33333333,5.02212783 8.70642938,4.67340226 9.16666667,4.67340226 Z"></path>
</svg>
