<?xml version="1.0" encoding="UTF-8"?>
<svg width="16px" height="16px" viewBox="0 0 16 16" version="1.1" xmlns="http://www.w3.org/2000/svg" xmlns:xlink="http://www.w3.org/1999/xlink">
    <!-- Generator: Sketch 51.2 (57519) - http://www.bohemiancoding.com/sketch -->
    <title>Shape</title>
    <desc>Created with Sketch.</desc>
    <defs></defs>
    <g id="Page-1" stroke="none" stroke-width="1" fill="none" fill-rule="evenodd">
        <g id="管理人员看板-付费" transform="translate(-298.000000, -406.000000)" fill="#4773FF" fill-rule="nonzero">
            <g id="Group-34" transform="translate(264.000000, 340.000000)">
                <g id="Group-31" transform="translate(34.000000, 61.000000)">
                    <path d="M1.77777778,8.55555556 L14.2222222,8.55555556 L14.2222222,6.87555556 C14.2222222,6.82155438 14.1784456,6.77777778 14.1244444,6.77777778 L1.87555556,6.77777778 C1.82155438,6.77777778 1.77777778,6.82155438 1.77777778,6.87555556 L1.77777778,8.55555556 Z M15.1111111,10.3333333 L1.77777778,10.3333333 L1.77777778,19.1244444 C1.77777778,19.1784456 1.82155438,19.2222222 1.87555556,19.2222222 L6.22222222,19.2222222 C6.713142,19.2222222 7.11111111,19.6201913 7.11111111,20.1111111 C7.11111111,20.6020309 6.713142,21 6.22222222,21 L1.87555556,21 C1.37812729,21 0.9010724,20.8023974 0.549337504,20.4506625 C0.197602607,20.0989276 -7.89491929e-16,19.6218727 0,19.1244444 L0,6.87555556 C0,5.83971482 0.839714825,5 1.87555556,5 L14.1244444,5 C15.1602852,5 16,5.83971482 16,6.87555556 L16,9.44444444 C16,9.93536422 15.6020309,10.3333333 15.1111111,10.3333333 Z M15.1111111,21 C14.9368592,20.9986393 14.7668504,20.9460911 14.6222222,20.8488889 L12.4444444,19.4 L10.2666667,20.8488889 C9.99432252,21.0282481 9.64563187,21.0440808 9.3581539,20.890141 C9.07067592,20.7362012 8.89057023,20.4372065 8.88888889,20.1111111 L8.88888889,13 C8.88888889,12.5090802 9.286858,12.1111111 9.77777778,12.1111111 L15.1111111,12.1111111 C15.6020309,12.1111111 16,12.5090802 16,13 L16,20.1111111 C16,20.6020309 15.6020309,21 15.1111111,21 Z M12.4444444,17.4444444 C12.6186964,17.4458052 12.7887051,17.4983533 12.9333333,17.5955556 L14.2222222,18.4844444 L14.2222222,13.8888889 L10.6666667,13.8888889 L10.6666667,18.4488889 L11.9555556,17.56 C12.1040177,17.4752752 12.2737605,17.4351542 12.4444444,17.4444444 Z" id="Shape"></path>
                </g>
            </g>
        </g>
    </g>
</svg>